<svg xmlns="http://www.w3.org/2000/svg" xmlns:xlink="http://www.w3.org/1999/xlink" version="1.1" width="3199.0839345341483" height="844.1158824247883" viewBox="0 0 3199.0839345341483 844.1158824247883">

    <g transform="scale(9.954196726707409) translate(10, 10)">
        <defs id="SvgjsDefs1013"></defs>
        <g id="SvgjsG1014" featureKey="nameLeftFeature-0" transform="matrix(2.758620716534618,0,0,2.758620716534618,0,-3.8413824014810576)" fill="#d72323">
            <path d="M2.74 20.12 c-1.52 0 -2.74 -1.24 -2.74 -2.74 l0 -2.18 l1.94 0 l0 2.18 c0 0.44 0.36 0.8 0.8 0.8 s0.78 -0.36 0.78 -0.8 l0 -1.9 l-3.52 -4.86 l0 -2.48 c0 -1.52 1.22 -2.76 2.74 -2.76 c1.5 0 2.72 1.24 2.72 2.76 l0 2.16 l-1.94 0 l0 -2.16 c0 -0.46 -0.34 -0.8 -0.78 -0.8 s-0.8 0.34 -0.8 0.8 l0 1.82 l3.52 4.86 l0 2.56 c0 1.5 -1.22 2.74 -2.72 2.74 z M11.554499999999999 5.720000000000001 l1.9 0 l0 14.26 l-1.9 0 l0 -7.54 l-1.7 0 l0 7.54 l-1.9 0 l0 -14.26 l1.9 0 l0 4.84 l1.7 0 l0 -4.84 z M20.929000000000002 20 l-0.72 -4.94 l-2.02 0 l-0.66 4.94 l-1.92 0 l2.16 -14.3 l2.58 0 l2.5 14.3 l-1.92 0 z M18.448999999999998 13.16 l1.48 0 l-0.76 -5.2 z M30.543499999999998 20.04 l-2.04 0 l-1.1 -3.02 l-0.44 0 l0 3.02 l-1.9 0 l0 -14.32 l2.98 0 c1.32 0 2.38 1.06 2.38 2.38 l0 6.54 c0 0.86 -0.44 1.6 -1.12 2.02 z M26.963499999999996 7.619999999999999 l0 7.5 l1.08 0 c0.26 0 0.48 -0.22 0.48 -0.48 l0 -6.54 c0 -0.26 -0.22 -0.48 -0.48 -0.48 l-1.08 0 z M37.69799999999999 12.46 l-2.76 0 l0 5.64 l2.78 0 l0 1.9 l-4.68 0 l0 -14.28 l4.68 0 l0 1.9 l-2.78 0 l0 2.94 l2.76 0 l0 1.9 z"></path>
        </g>
        <g id="SvgjsG1015" featureKey="inlineSymbolFeature-0" transform="matrix(2.02501182861085,0,0,2.02501182861085,121.6428861619737,0.0008217263537158171)" fill="#d72323">
            <g xmlns="http://www.w3.org/2000/svg" display="none">
                <rect x="-111.339" y="-144.667" display="inline" fill="#d72323" width="473.333" height="236"></rect>
            </g>
            <g xmlns="http://www.w3.org/2000/svg" display="none">
                <polygon display="inline" fill="#d72323" points="1.565,8 16,0 30.435,8 30.435,24 16,32 1.565,24  "></polygon>
                <polygon display="inline" fill="#d72323" points="7.763,11.435 16,6.869 24.237,11.435 24.237,20.565 16,25.131 7.763,20.565  "></polygon>
                <polygon display="inline" points="10.364,12.877 16,9.753 21.636,12.877 21.636,19.123 16,22.247 10.364,19.123  "></polygon>
            </g>
            <g xmlns="http://www.w3.org/2000/svg" display="none">
                <g display="inline">
                    <g>
                        <path fill="#d72323" d="M15.995,31.75c-8.685,0-15.75-7.065-15.75-15.75S7.31,0.25,15.995,0.25S31.745,7.315,31.745,16     S24.679,31.75,15.995,31.75z"></path>
                        <path fill="#d72323" d="M15.995,0.5c8.547,0,15.5,6.953,15.5,15.5s-6.953,15.5-15.5,15.5s-15.5-6.953-15.5-15.5     S7.448,0.5,15.995,0.5 M15.995,0c-8.837,0-16,7.163-16,16s7.163,16,16,16s16-7.163,16-16S24.831,0,15.995,0L15.995,0z"></path>
                    </g>
                </g>
                <g display="inline">
                    <g>
                        <polygon fill="#d72323" points="6.076,10.5 16,5 25.924,10.5 25.924,21.5 16,27 6.076,21.5    "></polygon>
                    </g>
                    <g>
                        <polygon fill="#d72323" points="10.337,12.861 16,9.723 21.663,12.861 21.663,19.139 16,22.277 10.337,19.139    "></polygon>
                    </g>
                    <g>
                        <polygon points="12.125,13.853 16,11.705 19.875,13.853 19.875,18.147 16,20.295 12.125,18.147    "></polygon>
                    </g>
                </g>
            </g>
            <g xmlns="http://www.w3.org/2000/svg" display="none">
                <polygon display="inline" points="1.565,8 16,0 30.435,8 30.435,24 16,32 1.565,24  "></polygon>
                <polygon display="inline" fill="#d72323" points="7.763,11.435 16,6.869 24.237,11.435 24.237,20.565 16,25.131 7.763,20.565  "></polygon>
                <g display="inline">
                    <polygon fill="#d72323" points="10.864,18.828 10.864,13.172 16,10.324 21.135,13.172 21.135,18.828 16,21.676   "></polygon>
                    <path d="M16,10.896l4.636,2.569v5.069L16,21.104l-4.636-2.569v-5.069L16,10.896 M16,9.753l-5.636,3.123v6.247L16,22.247    l5.636-3.123v-6.247L16,9.753L16,9.753z"></path>
                </g>
            </g>
            <g xmlns="http://www.w3.org/2000/svg" display="none">
                <g display="inline">
                    <path fill="#d72323" d="M16,1.143l13.435,7.446v14.822L16,30.857L2.565,23.411V8.589L16,1.143 M16,0L1.565,8v16L16,32l14.435-8V8    L16,0L16,0z"></path>
                </g>
                <g display="inline">
                    <path fill="#d72323" d="M16,8.013l7.237,4.011v7.952L16,23.987l-7.237-4.011v-7.952L16,8.013 M16,6.869l-8.237,4.565v9.131    L16,25.131l8.237-4.565v-9.131L16,6.869L16,6.869z"></path>
                </g>
                <g display="inline">
                    <path fill="#d72323" d="M16,10.896l4.636,2.569v5.069L16,21.104l-4.636-2.569v-5.069L16,10.896 M16,9.753l-5.636,3.123v6.247    L16,22.247l5.636-3.123v-6.247L16,9.753L16,9.753z"></path>
                </g>
            </g>
            <g xmlns="http://www.w3.org/2000/svg" display="none">
                <g display="inline">
                    <path fill="#d72323" d="M16,0.572l13.935,7.723v15.411L16,31.428L2.065,23.705V8.295L16,0.572 M16,0L1.565,8v16L16,32l14.435-8V8    L16,0L16,0z"></path>
                </g>
                <g display="inline">
                    <path fill="#d72323" d="M16,7.441l7.737,4.288v8.542L16,24.559l-7.737-4.288v-8.542L16,7.441 M16,6.869l-8.237,4.565v9.131    L16,25.131l8.237-4.565v-9.131L16,6.869L16,6.869z"></path>
                </g>
                <g display="inline">
                    <path fill="#d72323" d="M16,10.325l5.136,2.846v5.658L16,21.675l-5.136-2.846v-5.658L16,10.325 M16,9.753l-5.636,3.123v6.247    L16,22.247l5.636-3.123v-6.247L16,9.753L16,9.753z"></path>
                </g>
            </g>
            <g xmlns="http://www.w3.org/2000/svg">
                <path d="M21.566,2.782C20.075,1.955,17.841-0.033,16.114,0c-1.694,0.033-4.144,2.182-5.571,2.973   C7.519,4.65,4.495,6.327,1.471,8.004C1.344,8.05,1.246,8.107,1.2,8.175c0,0,0,0.001,0,0.001C1.183,8.2,1.164,8.224,1.164,8.25   c0,5.27,0,10.54,0,15.81c0.011,0.012,0.021,0.024,0.032,0.035c3.079,1.707,6.159,3.415,9.238,5.122   c1.491,0.827,3.725,2.815,5.452,2.782c1.694-0.033,4.144-2.182,5.571-2.973c3.079-1.707,6.159-3.415,9.238-5.122   c0.052-0.029,0.141-0.083,0.141-0.155c0-5.27,0-10.54,0-15.81c-0.011-0.012-0.021-0.024-0.032-0.035   C27.725,6.197,24.645,4.49,21.566,2.782z M29.676,23.565c-0.705,1.597-5.145,3.271-6.987,4.293   c-1.686,0.935-3.372,1.87-5.059,2.805c-0.393,0.218-0.897,0.588-1.365,0.8c-0.035-0.023-0.076-0.047-0.13-0.073   c-3.42-1.646-6.694-3.712-10.014-5.553c-3.767-2.089-3.797-1.889-3.797-6.186c0-3.878,0-7.756,0-11.634   c2.755-1.528,5.51-3.055,8.264-4.583c1.522-0.844,3.177-1.589,4.621-2.562c0.122-0.082,0.331-0.236,0.55-0.372   c0.169,0.095,0.463,0.225,0.671,0.424c2.621,2.499,7.373,4.088,10.551,5.85c2.952,1.637,2.695,1.73,2.695,5.151   c0,2.22,0,4.44,0,6.661C29.676,19.878,30.192,22.396,29.676,23.565z"></path>
                <path d="M19.628,8.47c-0.889-0.493-2.444-1.82-3.539-1.776c-1.039,0.042-2.466,1.269-3.303,1.733   c-1.757,0.974-3.514,1.949-5.272,2.923c-0.014,0.008-0.017,0.014-0.03,0.022c-0.013,0.008-0.024,0.017-0.036,0.026   c-0.122,0.081-0.167,0.148-0.146,0.198c-0.004,0.017-0.017,0.031-0.017,0.049c0,3.007,0,6.015,0,9.022   c0.02,0.053,0.058,0.088,0.113,0.106c1.658,0.919,3.316,1.839,4.974,2.758c0.889,0.493,2.444,1.82,3.539,1.776   c1.039-0.042,2.466-1.269,3.303-1.733c1.757-0.974,3.514-1.949,5.272-2.923c0.118-0.066,0.229-0.151,0.229-0.294   c0-3.007,0-6.015,0-9.022c-0.02-0.053-0.058-0.088-0.113-0.106C22.944,10.309,21.286,9.389,19.628,8.47z M23.641,20.499   c-0.573,0.995-5.118,2.79-6.477,3.544c-0.302,0.168-0.635,0.417-0.969,0.584c-0.03-0.022-0.043-0.041-0.089-0.066   c-1.126-0.643-2.269-1.258-3.403-1.887c-1.05-0.582-2.883-1.174-3.702-2.052c-0.653-0.701-0.506-0.338-0.557-1.554   c-0.105-2.512-0.006-5.05-0.001-7.565c2.05-1.137,4.1-2.274,6.151-3.41c0.342-0.19,0.777-0.522,1.187-0.718   c1.108,0.409,2.18,1.211,3.213,1.784c1.192,0.661,2.796,1.234,3.83,2.124c0.88,0.757,0.547,0.235,0.733,1.394   C23.775,14.038,24.123,19.662,23.641,20.499z"></path>
                <path d="M18.507,10.721c-0.723-0.401-1.546-1.127-2.395-1.092c-0.814,0.033-1.854,0.915-2.512,1.279   c-1.146,0.635-2.291,1.271-3.437,1.906c-0.124,0.045-0.222,0.102-0.27,0.17c-0.003,0.004-0.004,0.008-0.005,0.012   c-0.015,0.024-0.033,0.047-0.033,0.073c0,2.058,0,4.115,0,6.173c0.011,0.013,0.022,0.025,0.032,0.038   c1.202,0.667,2.405,1.333,3.607,2c0.722,0.401,1.546,1.127,2.395,1.092c0.814-0.033,1.854-0.915,2.512-1.279   c1.202-0.667,2.405-1.333,3.607-2c0.056-0.031,0.139-0.087,0.139-0.161c0-2.057,0-4.115,0-6.173   c-0.011-0.013-0.022-0.025-0.032-0.038C20.911,12.054,19.709,11.387,18.507,10.721z M20.986,18.94   c-0.103,0.303-0.223,0.342-0.897,0.716c-1.289,0.715-2.578,1.429-3.867,2.144c-0.75-0.416-1.5-0.832-2.25-1.248   c-0.602-0.334-2.599-1.02-2.951-1.636c-0.325-0.57-0.008-2.193-0.008-2.827c0-1.082,0-2.164,0-3.246   c1.588-0.881,3.176-1.761,4.764-2.642c1.346,0.746,2.693,1.493,4.039,2.24c0.438,0.243,0.968,0.425,1.17,0.82   c0.314,0.614,0,2.21,0,2.896C20.986,16.935,21.237,18.199,20.986,18.94z"></path>
            </g>
            <g xmlns="http://www.w3.org/2000/svg" display="none">
                <g display="inline">
                    <path fill="#d72323" d="M16,2.287l12.435,6.892v13.644L16,29.713L3.565,22.822V9.178L16,2.287 M16,0L1.565,8v16L16,32l14.435-8V8    L16,0L16,0z"></path>
                </g>
                <polygon display="inline" fill="#d72323" stroke="#d72323" stroke-width="2" stroke-miterlimit="10" points="7.763,11.435 16,6.869    24.237,11.435 24.237,20.565 16,25.131 7.763,20.565  "></polygon>
                <g display="inline">
                    <path fill="#d72323" d="M16,12.04l3.636,2.015v3.891L16,19.96l-3.636-2.015v-3.891L16,12.04 M16,9.753l-5.636,3.123v6.247    L16,22.247l5.636-3.123v-6.247L16,9.753L16,9.753z"></path>
                </g>
            </g>
            <g xmlns="http://www.w3.org/2000/svg" display="none">
                <g display="inline">
                    <polygon fill="#d72323" points="2.065,23.705 2.065,8.295 16,0.571 29.935,8.295 29.935,23.705 16,31.429   "></polygon>
                    <path fill="#d72323" d="M16,1.143l13.435,7.446v14.822L16,30.857L2.565,23.411V8.589L16,1.143 M16,0L1.565,8v16L16,32l14.435-8V8    L16,0L16,0z"></path>
                </g>
                <g display="inline">
                    <polygon fill="#d72323" points="8.262,20.271 8.262,11.729 16,7.44 23.737,11.729 23.737,20.271 16,24.56   "></polygon>
                    <g>
                        <path d="M16,8.013l7.237,4.011v7.952L16,23.987l-7.237-4.011v-7.952L16,8.013 M16,6.869l-8.237,4.565v9.131L16,25.131     l8.237-4.565v-9.131L16,6.869L16,6.869z"></path>
                    </g>
                </g>
                <g display="inline">
                    <polygon fill="#d72323" points="10.864,18.828 10.864,13.172 16,10.324 21.135,13.172 21.135,18.828 16,21.676   "></polygon>
                    <g>
                        <path d="M16,10.896l4.636,2.569v5.069L16,21.104l-4.636-2.569v-5.069L16,10.896 M16,9.753l-5.636,3.123v6.247L16,22.247     l5.636-3.123v-6.247L16,9.753L16,9.753z"></path>
                    </g>
                </g>
            </g>
            <g xmlns="http://www.w3.org/2000/svg" display="none">
                <path display="inline" d="M16,0L1.565,8v16L16,32l14.435-8V8L16,0z M24.237,20.565L16,25.131l-8.237-4.565v-9.131L16,6.869   l8.237,4.565V20.565z"></path>
                <polygon display="inline" points="10.364,12.877 16,9.753 21.636,12.877 21.636,19.123 16,22.247 10.364,19.123  "></polygon>
            </g>
        </g>
        <g id="SvgjsG1016" featureKey="nameRightFeature-0" transform="matrix(2.7808674581809387,0,0,2.7808674581809387,188.7205233054818,-4.294771019995164)" fill="#d72323">
            <path d="M12.034500000000001 19.8 l-1.46 1.36 l-1.1 -1.18 c-0.34 0.2 -0.76 0.28 -1.2 0.28 c-1.54 0 -2.78 -1.24 -2.78 -2.78 l0 -9.2 c0 -1.54 1.24 -2.78 2.78 -2.78 s2.78 1.24 2.78 2.78 l0 9.2 c0 0.38 -0.08 0.74 -0.2 1.08 z M8.2745 18.28 c0.44 0 0.82 -0.34 0.82 -0.8 l0 -9.2 c0 -0.46 -0.38 -0.82 -0.82 -0.82 s-0.8 0.36 -0.8 0.82 l0 9.2 c0 0.46 0.36 0.8 0.8 0.8 z M16.629 20.04 c-1.62 0 -2.94 -1.32 -2.94 -2.94 l0 -11.36 l1.9 0 l0 11.36 c0 0.58 0.46 1.06 1.04 1.06 s1.04 -0.48 1.04 -1.06 l0 -11.36 l1.9 0 l0 11.36 c0 1.62 -1.32 2.94 -2.94 2.94 z M23.963499999999996 5.68 l0 14.24 l-1.9 0 l0 -14.24 l1.9 0 z M29.137999999999998 19.96 c-1.48 0 -2.68 -1.2 -2.68 -2.68 l0 -8.88 c0 -1.48 1.2 -2.68 2.68 -2.68 s2.68 1.2 2.68 2.68 l0 0.8 l-1.9 0 l0 -0.8 c0 -0.42 -0.36 -0.78 -0.78 -0.78 s-0.78 0.36 -0.78 0.78 l0 8.88 c0 0.42 0.36 0.78 0.78 0.78 s0.78 -0.36 0.78 -0.78 l0 -1.28 l1.9 0 l0 1.28 c0 1.48 -1.2 2.68 -2.68 2.68 z M38.5725 19.92 l-2.1 -7.88 l-0.3 0.5 l0 7.44 l-1.86 0 l0 -14.26 l1.86 0 l0 3.1 l1.24 -3.1 l2.3 0 l-1.9 4.12 l2.7 10.08 l-1.94 0 z"></path>
        </g>
    </g>
</svg>
	